<svg width="21" height="42" viewBox="0 0 21 42" fill="none" xmlns="http://www.w3.org/2000/svg">
<path d="M0.396175 8.48859C0.659216 8.94827 1.03926 9.33011 1.49768 9.59533C1.9561 9.86055 2.47656 9.99968 3.00618 9.99859C3.54826 9.98257 4.07702 9.82687 4.54128 9.54657C5.00553 9.26626 5.38956 8.87084 5.65618 8.39859C6.10225 7.66586 6.72935 7.06021 7.47716 6.63989C8.22497 6.21958 9.06834 5.99873 9.92618 5.99859C10.2619 5.99975 10.5968 6.03323 10.9262 6.09859C11.9346 6.30356 12.8553 6.81471 13.5625 7.56227C14.2697 8.30984 14.729 9.25741 14.8778 10.2757C15.0265 11.2939 14.8574 12.3333 14.3936 13.2519C13.9298 14.1706 13.1939 14.9237 12.2862 15.4086C10.6249 16.3504 9.24944 17.7242 8.30577 19.3844C7.3621 21.0447 6.88538 22.9294 6.92618 24.8386V24.9986C6.92618 25.7942 7.24225 26.5573 7.80486 27.1199C8.36746 27.6825 9.13053 27.9986 9.92618 27.9986C10.7218 27.9986 11.4849 27.6825 12.0475 27.1199C12.6101 26.5573 12.9262 25.7942 12.9262 24.9986V24.8386C12.8936 24.013 13.0811 23.1937 13.4694 22.4644C13.8578 21.7352 14.433 21.1223 15.1362 20.6886C16.6351 19.8828 17.9265 18.7402 18.909 17.3507C19.8915 15.9612 20.5382 14.3627 20.7982 12.6809C21.0583 10.9991 20.9246 9.27992 20.4076 7.65857C19.8907 6.03723 19.0046 4.55793 17.8191 3.33704C16.6336 2.11615 15.181 1.18696 13.5756 0.622575C11.9701 0.0581855 10.2556 -0.126016 8.56693 0.0844588C6.87823 0.294933 5.2614 0.894344 3.84361 1.83554C2.42581 2.77674 1.24573 4.03405 0.396175 5.50859C0.136568 5.96226 0 6.47589 0 6.99859C0 7.52129 0.136568 8.03492 0.396175 8.48859Z" fill="#7C3AED"/>
<path d="M9.92578 41.9986C11.5826 41.9986 12.9258 40.6555 12.9258 38.9986C12.9258 37.3417 11.5826 35.9986 9.92578 35.9986C8.26893 35.9986 6.92578 37.3417 6.92578 38.9986C6.92578 40.6555 8.26893 41.9986 9.92578 41.9986Z" fill="#7C3AED"/>
</svg>
