<svg width="56" height="54" viewBox="0 0 56 54" fill="none" xmlns="http://www.w3.org/2000/svg">
<path d="M53 0H19C17.35 0 16 1.35 16 3C16 4.65 17.35 6 19 6H53C54.65 6 56 4.65 56 3C56 1.35 54.65 0 53 0Z" fill="#7C3AED"/>
<path d="M53 16H29C27.35 16 26 17.35 26 19C26 20.65 27.35 22 29 22H53C54.65 22 56 20.65 56 19C56 17.35 54.65 16 53 16Z" fill="#7C3AED"/>
<path d="M13 22C14.6569 22 16 20.6569 16 19C16 17.3431 14.6569 16 13 16C11.3431 16 10 17.3431 10 19C10 20.6569 11.3431 22 13 22Z" fill="#7C3AED"/>
<path d="M3 6C4.65685 6 6 4.65685 6 3C6 1.34315 4.65685 0 3 0C1.34315 0 0 1.34315 0 3C0 4.65685 1.34315 6 3 6Z" fill="#7C3AED"/>
<path d="M53 32H39C37.35 32 36 33.35 36 35C36 36.65 37.35 38 39 38H53C54.65 38 56 36.65 56 35C56 33.35 54.65 32 53 32Z" fill="#7C3AED"/>
<path d="M23 38C24.6569 38 26 36.6569 26 35C26 33.3431 24.6569 32 23 32C21.3431 32 20 33.3431 20 35C20 36.6569 21.3431 38 23 38Z" fill="#7C3AED"/>
<path d="M53 48H19C17.35 48 16 49.35 16 51C16 52.65 17.35 54 19 54H53C54.65 54 56 52.65 56 51C56 49.35 54.65 48 53 48Z" fill="#7C3AED"/>
<path d="M3 54C4.65685 54 6 52.6569 6 51C6 49.3431 4.65685 48 3 48C1.34315 48 0 49.3431 0 51C0 52.6569 1.34315 54 3 54Z" fill="#7C3AED"/>
</svg>
